<mxfile host="app.diagrams.net" modified="2024-03-21T19:44:00.072Z" agent="Mozilla/5.0 (Macintosh; Intel Mac OS X 10_15_7) AppleWebKit/537.36 (KHTML, like Gecko) Chrome/121.0.0.0 Safari/537.36" etag="QZw2xwWS4kBBYSnSqMVi" version="24.0.7" type="device">
  <diagram name="Page-1" id="cunMfvtEORI8jYnx5THH">
    <mxGraphModel dx="1434" dy="761" grid="1" gridSize="10" guides="1" tooltips="1" connect="1" arrows="1" fold="1" page="1" pageScale="1" pageWidth="850" pageHeight="1100" math="0" shadow="0">
      <root>
        <mxCell id="0" />
        <mxCell id="1" parent="0" />
        <mxCell id="UHKg6KsPvyjuCtMLgwtb-2" value="&amp;nbsp; &amp;nbsp; &amp;nbsp; Logo&lt;div&gt;&amp;nbsp; &amp;nbsp; &amp;nbsp; staff info&lt;/div&gt;" style="swimlane;whiteSpace=wrap;html=1;align=left;startSize=30;fillColor=#DDABE7;strokeColor=#9673a6;" vertex="1" parent="1">
          <mxGeometry x="200" y="80" width="440" height="600" as="geometry" />
        </mxCell>
        <mxCell id="UHKg6KsPvyjuCtMLgwtb-4" value="Link.&amp;nbsp; Link&amp;nbsp; &amp;nbsp; Link.&amp;nbsp; &amp;nbsp;Link.&amp;nbsp; &amp;nbsp;Link&amp;nbsp; &amp;nbsp; Login" style="text;html=1;align=center;verticalAlign=middle;whiteSpace=wrap;rounded=0;" vertex="1" parent="UHKg6KsPvyjuCtMLgwtb-2">
          <mxGeometry x="200" y="30" width="240" height="30" as="geometry" />
        </mxCell>
        <mxCell id="UHKg6KsPvyjuCtMLgwtb-10" value="&lt;font style=&quot;font-size: 22px;&quot;&gt;Punch&lt;/font&gt;" style="text;html=1;align=left;verticalAlign=middle;whiteSpace=wrap;rounded=0;" vertex="1" parent="UHKg6KsPvyjuCtMLgwtb-2">
          <mxGeometry x="20" y="90" width="80" height="30" as="geometry" />
        </mxCell>
        <mxCell id="UHKg6KsPvyjuCtMLgwtb-15" value="" style="rounded=0;whiteSpace=wrap;html=1;" vertex="1" parent="UHKg6KsPvyjuCtMLgwtb-2">
          <mxGeometry x="110" y="170" width="220" height="50" as="geometry" />
        </mxCell>
        <mxCell id="UHKg6KsPvyjuCtMLgwtb-16" value="" style="ellipse;whiteSpace=wrap;html=1;aspect=fixed;" vertex="1" parent="UHKg6KsPvyjuCtMLgwtb-2">
          <mxGeometry x="110" y="170" width="50" height="50" as="geometry" />
        </mxCell>
        <mxCell id="UHKg6KsPvyjuCtMLgwtb-17" value="" style="rounded=0;whiteSpace=wrap;html=1;" vertex="1" parent="UHKg6KsPvyjuCtMLgwtb-2">
          <mxGeometry x="110" y="250" width="220" height="50" as="geometry" />
        </mxCell>
        <mxCell id="UHKg6KsPvyjuCtMLgwtb-18" value="" style="ellipse;whiteSpace=wrap;html=1;aspect=fixed;" vertex="1" parent="UHKg6KsPvyjuCtMLgwtb-2">
          <mxGeometry x="110" y="250" width="50" height="50" as="geometry" />
        </mxCell>
        <mxCell id="UHKg6KsPvyjuCtMLgwtb-19" value="" style="rounded=0;whiteSpace=wrap;html=1;" vertex="1" parent="UHKg6KsPvyjuCtMLgwtb-2">
          <mxGeometry x="110" y="340" width="220" height="50" as="geometry" />
        </mxCell>
        <mxCell id="UHKg6KsPvyjuCtMLgwtb-20" value="" style="ellipse;whiteSpace=wrap;html=1;aspect=fixed;" vertex="1" parent="UHKg6KsPvyjuCtMLgwtb-2">
          <mxGeometry x="110" y="340" width="50" height="50" as="geometry" />
        </mxCell>
        <mxCell id="UHKg6KsPvyjuCtMLgwtb-21" value="" style="rounded=0;whiteSpace=wrap;html=1;" vertex="1" parent="UHKg6KsPvyjuCtMLgwtb-2">
          <mxGeometry x="110" y="420" width="220" height="50" as="geometry" />
        </mxCell>
        <mxCell id="UHKg6KsPvyjuCtMLgwtb-22" value="" style="ellipse;whiteSpace=wrap;html=1;aspect=fixed;" vertex="1" parent="UHKg6KsPvyjuCtMLgwtb-2">
          <mxGeometry x="110" y="420" width="50" height="50" as="geometry" />
        </mxCell>
        <mxCell id="UHKg6KsPvyjuCtMLgwtb-23" value="Clock In" style="text;html=1;align=center;verticalAlign=middle;whiteSpace=wrap;rounded=0;" vertex="1" parent="UHKg6KsPvyjuCtMLgwtb-2">
          <mxGeometry x="190" y="180" width="60" height="30" as="geometry" />
        </mxCell>
        <mxCell id="UHKg6KsPvyjuCtMLgwtb-24" value="Clock Out" style="text;html=1;align=center;verticalAlign=middle;whiteSpace=wrap;rounded=0;" vertex="1" parent="UHKg6KsPvyjuCtMLgwtb-2">
          <mxGeometry x="190" y="430" width="60" height="30" as="geometry" />
        </mxCell>
        <mxCell id="UHKg6KsPvyjuCtMLgwtb-25" value="Break Start" style="text;html=1;align=center;verticalAlign=middle;whiteSpace=wrap;rounded=0;" vertex="1" parent="UHKg6KsPvyjuCtMLgwtb-2">
          <mxGeometry x="180" y="260" width="110" height="30" as="geometry" />
        </mxCell>
        <mxCell id="UHKg6KsPvyjuCtMLgwtb-26" value="Break End" style="text;html=1;align=center;verticalAlign=middle;whiteSpace=wrap;rounded=0;" vertex="1" parent="UHKg6KsPvyjuCtMLgwtb-2">
          <mxGeometry x="195" y="350" width="60" height="30" as="geometry" />
        </mxCell>
        <mxCell id="UHKg6KsPvyjuCtMLgwtb-5" value="" style="endArrow=none;html=1;rounded=0;entryX=1;entryY=1;entryDx=0;entryDy=0;" edge="1" parent="1" target="UHKg6KsPvyjuCtMLgwtb-4">
          <mxGeometry width="50" height="50" relative="1" as="geometry">
            <mxPoint x="200" y="140" as="sourcePoint" />
            <mxPoint x="450" y="300" as="targetPoint" />
          </mxGeometry>
        </mxCell>
      </root>
    </mxGraphModel>
  </diagram>
</mxfile>
